<svg width="75" height="24" viewBox="0 0 75 24" xmlns="http://www.w3.org/2000/svg"><path d="M16.92 7.464c.096.12.072.252-.072.396l-.288.216c-.12 0-.204.036-.252.108-.024.048-.096.096-.216.144-.168.072-.3.144-.396.216-.072.048-.276.096-.612.144-.768-.12-1.62-.168-2.556-.144-.936 0-1.716.024-2.34.072.144 1.08.228 2.22.252 3.42a62.85 62.85 0 0 1-.036 3.672 90.245 90.245 0 0 1-.144 3.636c-.048 1.2-.072 2.34-.072 3.42v.612a9.964 9.964 0 0 1-.288-1.332 4.27 4.27 0 0 1-.108-.468 5.636 5.636 0 0 0-.108-.432 36.123 36.123 0 0 1-.504-6.156c0-2.16.132-4.26.396-6.3-1.368.192-2.688.396-3.96.612a26.344 26.344 0 0 0-3.78.936 2.843 2.843 0 0 1-.432.108c-.12.024-.252.06-.396.108a1.324 1.324 0 0 0-.324-.252c-.096-.048-.156-.168-.18-.36-.048-.264.024-.468.216-.612.192-.168.384-.348.576-.54.072-.024.12-.084.144-.18l.072-.288c.048-.096.084-.18.108-.252.024-.096.072-.156.144-.18a25.417 25.417 0 0 1 3.708-.972 26.767 26.767 0 0 1 3.888-.432c1.32-.048 2.616.012 3.888.18 1.296.168 2.52.468 3.672.9zm5.012 6.588c.552-.816 1.212-1.464 1.98-1.944.768-.504 1.656-.72 2.664-.648.144.024.3.084.468.18.168.072.324.144.468.216.36.192.696.48 1.008.864.312.36.588.78.828 1.26.264.456.48.936.648 1.44.168.504.288.972.36 1.404.048.264.084.6.108 1.008.024.408.036.78.036 1.116-.048 0-.072.012-.072.036 0 .024-.024.024-.072 0a1.254 1.254 0 0 1-.468-.396.838.838 0 0 0-.216-.144.453.453 0 0 1-.18-.252 82.42 82.42 0 0 1-.18-.936 7.058 7.058 0 0 0-.288-1.296 9.106 9.106 0 0 0-.54-1.332 4.665 4.665 0 0 0-.792-1.188 1.324 1.324 0 0 0-.324-.252 1.496 1.496 0 0 0-.288-.216c-.12-.096-.3-.156-.54-.18-.24-.048-.444-.048-.612 0-.408.12-.84.348-1.296.684a4.972 4.972 0 0 0-1.188 1.26 4.69 4.69 0 0 0-.72 1.692c-.144.648-.084 1.344.18 2.088.072.216.12.396.144.54.024.12.024.24 0 .36 0 .12-.036.252-.108.396l-.288.576c-.192.288-.42.492-.684.612a4.23 4.23 0 0 0-.648.396 42.489 42.489 0 0 1-1.62-5.976 45.75 45.75 0 0 1-.684-5.652c-.072-1.776-.012-3.396.18-4.86.192-1.488.492-2.724.9-3.708.072-.288.228-.408.468-.36.12.024.216.072.288.144l.288.288c.096.12.18.228.252.324.072.072.12.18.144.324.024.12.084.18.18.18.096 0 .132.06.108.18a37.746 37.746 0 0 0-.432 3.672 35.475 35.475 0 0 0-.072 3.132c.048.96.132 1.848.252 2.664.12.816.24 1.584.36 2.304zm18.12-4.14c.167.168.323.36.467.576.144.192.264.396.36.612.192.456.288.912.288 1.368.024.432-.144.96-.504 1.584a5.607 5.607 0 0 1-1.584 1.692 4.705 4.705 0 0 1-2.052.864 4.392 4.392 0 0 1-1.584 0 3.98 3.98 0 0 1-1.512-.72c-.144.12-.264.3-.36.54-.072.216-.096.42-.072.612.048.336.168.708.36 1.116.216.384.444.648.684.792.408.168.972.18 1.692.036a16.44 16.44 0 0 0 2.34-.648c.84-.312 1.656-.648 2.448-1.008.816-.384 1.512-.708 2.088-.972 0 .144-.036.24-.108.288-.048.048-.12.132-.216.252-.12.12-.252.264-.396.432a2.183 2.183 0 0 1-.504.432c-.24.144-.42.336-.54.576-.12.216-.348.42-.684.612-.456.24-.924.492-1.404.756-.456.24-.912.468-1.368.684a9.634 9.634 0 0 1-1.404.468c-.456.096-.912.12-1.368.072a2.365 2.365 0 0 1-.792-.252 6.93 6.93 0 0 1-.72-.54 4.578 4.578 0 0 0-.504-.36 1.71 1.71 0 0 1-.432-.36 5.374 5.374 0 0 1-.828-1.908 6.603 6.603 0 0 1-.108-2.052 8.344 8.344 0 0 1 .54-2.016 7.279 7.279 0 0 1 1.044-1.836 7.67 7.67 0 0 1 .864-.936c.36-.336.744-.624 1.152-.864a6.037 6.037 0 0 1 1.332-.612c.48-.144.96-.204 1.44-.18.192.024.36.084.504.18.168.072.348.156.54.252.12.048.264.12.432.216.192.072.348.156.468.252zm-1.045 2.124c-.048-.216-.18-.408-.396-.576a2.626 2.626 0 0 0-.72-.396 2.442 2.442 0 0 0-.792-.216c-.264-.024-.456-.012-.576.036-.192.072-.42.204-.684.396-.24.168-.48.372-.72.612-.216.24-.432.504-.648.792a3.539 3.539 0 0 0-.432.756 1.37 1.37 0 0 0-.144.36c-.024.144-.012.252.036.324.288.36.72.54 1.296.54.552 0 1.14-.132 1.764-.396.648-.264 1.104-.54 1.368-.828.024-.048.072-.132.144-.252.096-.12.18-.252.252-.396.072-.144.132-.288.18-.432.072-.144.096-.252.072-.324zm5.907-2.052a7.43 7.43 0 0 1 .18 1.944c-.024.672-.06 1.356-.108 2.052a29.248 29.248 0 0 0 0 2.052c.048.672.228 1.308.54 1.908a13.054 13.054 0 0 1 2.268-3.708 24.231 24.231 0 0 1 3.06-3.024.918.918 0 0 1 .432-.216c.168-.048.324-.096.468-.144.12-.048.228-.084.324-.108.12-.048.276-.024.468.072.48.264.756.768.828 1.512.072.744.108 1.8.108 3.168.36-.36.72-.756 1.08-1.188.384-.456.768-.888 1.152-1.296.384-.408.78-.768 1.188-1.08.408-.312.84-.54 1.296-.684a.666.666 0 0 1 .432 0c.168.024.324.036.468.036.096 0 .18-.012.252-.036a.303.303 0 0 1 .252-.036.569.569 0 0 1 .36.216c.12.12.204.252.252.396.096.36.228.864.396 1.512.168.624.312 1.272.432 1.944.144.648.252 1.26.324 1.836.072.576.072.984 0 1.224-.048.216-.108.36-.18.432a3.451 3.451 0 0 1-.36.396c-.048 0-.108.036-.18.108a1.43 1.43 0 0 1-.18.216c-.096.096-.18.192-.252.288a5.614 5.614 0 0 1-.72-1.476 16.679 16.679 0 0 1-.432-1.656 38.378 38.378 0 0 1-.324-1.764c-.096-.6-.216-1.212-.36-1.836-.696.36-1.248.78-1.656 1.26a6.387 6.387 0 0 0-.936 1.476c-.24.504-.456 1.02-.648 1.548a8.732 8.732 0 0 1-.72 1.512 4.928 4.928 0 0 1-.792.972c-.264.24-.48.348-.648.324-.144-.024-.252-.156-.324-.396-.072-.24-.168-.6-.288-1.08-.24-.984-.468-2.04-.684-3.168a35.495 35.495 0 0 0-.648-3.06c-.456.144-.912.408-1.368.792-.432.36-.84.792-1.224 1.296a9.881 9.881 0 0 0-1.044 1.62c-.288.6-.504 1.2-.648 1.8.312.624.324 1.14.036 1.548a1.68 1.68 0 0 1-.504.504 19.9 19.9 0 0 1-.756.396c-.168.168-.348.228-.54.18a.8.8 0 0 1-.468-.324c-.12-.192-.192-.348-.216-.468-.144-.768-.288-1.56-.432-2.376-.144-.84-.24-1.68-.288-2.52-.024-.84.012-1.668.108-2.484.096-.84.3-1.644.612-2.412.048-.144.096-.216.144-.216.048 0 .096.024.144.072l.144.072.072.036c.024 0 .06.012.108.036zm26.813-.072c.168.168.324.36.468.576.144.192.264.396.36.612.192.456.288.912.288 1.368.024.432-.144.96-.504 1.584a5.607 5.607 0 0 1-1.584 1.692 4.705 4.705 0 0 1-2.052.864 4.392 4.392 0 0 1-1.584 0 3.98 3.98 0 0 1-1.512-.72c-.144.12-.264.3-.36.54-.072.216-.096.42-.072.612.048.336.168.708.36 1.116.216.384.444.648.684.792.408.168.972.18 1.692.036a16.44 16.44 0 0 0 2.34-.648c.84-.312 1.656-.648 2.448-1.008.816-.384 1.512-.708 2.088-.972 0 .144-.036.24-.108.288-.048.048-.12.132-.216.252-.12.12-.252.264-.396.432a2.183 2.183 0 0 1-.504.432c-.24.144-.42.336-.54.576-.12.216-.348.42-.684.612-.456.24-.924.492-1.404.756-.456.24-.912.468-1.368.684a9.634 9.634 0 0 1-1.404.468c-.456.096-.912.12-1.368.072a2.365 2.365 0 0 1-.792-.252 6.93 6.93 0 0 1-.72-.54 4.578 4.578 0 0 0-.504-.36 1.71 1.71 0 0 1-.432-.36 5.374 5.374 0 0 1-.828-1.908 6.603 6.603 0 0 1-.108-2.052 8.344 8.344 0 0 1 .54-2.016 7.279 7.279 0 0 1 1.044-1.836 7.67 7.67 0 0 1 .864-.936c.36-.336.744-.624 1.152-.864a6.037 6.037 0 0 1 1.332-.612c.48-.144.96-.204 1.44-.18.192.024.36.084.504.18.168.072.348.156.54.252.12.048.264.12.432.216.192.072.348.156.468.252zm-1.044 2.124c-.048-.216-.18-.408-.396-.576a2.626 2.626 0 0 0-.72-.396 2.442 2.442 0 0 0-.792-.216c-.264-.024-.456-.012-.576.036-.192.072-.42.204-.684.396-.24.168-.48.372-.72.612-.216.24-.432.504-.648.792a3.539 3.539 0 0 0-.432.756 1.37 1.37 0 0 0-.144.36c-.024.144-.012.252.036.324.288.36.72.54 1.296.54.552 0 1.14-.132 1.764-.396.648-.264 1.104-.54 1.368-.828.024-.048.072-.132.144-.252.096-.12.18-.252.252-.396.072-.144.132-.288.18-.432.072-.144.096-.252.072-.324z" fill="currentColor"/></svg>